<svg xmlns="http://www.w3.org/2000/svg" width="58.591" height="57.464" viewBox="0 0 58.591 57.464">
  <path id="pattern-quotation" d="M58.591,57.464V33.649h-11.2a32.167,32.167,0,0,1,1.165-8.976A30.359,30.359,0,0,1,52,17a18.028,18.028,0,0,1,6.588-6.089V0A37.978,37.978,0,0,0,45.146,9.472a39.277,39.277,0,0,0-7.708,12.855q-2.51,6.991-2.51,20.343V57.464Zm-34.929,0V33.649h-11.2a32.167,32.167,0,0,1,1.165-8.976A30.359,30.359,0,0,1,17.074,17a18.028,18.028,0,0,1,6.588-6.089V0A38.334,38.334,0,0,0,2.51,22.327Q0,29.318,0,42.67V57.464Z" fill="#7393fc"/>
</svg>
